<?xml version="1.0" encoding="UTF-8"?>
<svg xmlns="http://www.w3.org/2000/svg" id="Layer_1" data-name="Layer 1" viewBox="0 0 24 24">
  <path d="M12.011,1C6.522,1,3.375,4.152,3.375,9.649c0,4.688,2.794,6.568,4.46,7.272,.367,.155,.596,.499,.596,.896,0,3.035,.257,5.183,3.58,5.183s3.58-2.151,3.58-5.189c0-.397,.228-.74,.593-.895,1.659-.705,4.441-2.584,4.441-7.267,0-5.497-3.14-8.649-8.614-8.649Zm0,21c-1.952,0-2.496-.628-2.571-3.406,.752,.143,1.599,.213,2.571,.213s1.818-.071,2.57-.215c-.075,2.779-.619,3.409-2.57,3.409Zm3.782-6.005c-.654,.278-1.101,.879-1.187,1.571-.609,.133-1.295,.21-2.077,.233v-6.249c.653-.135,1.295-.534,1.995-1.235,.195-.195,.195-.512,0-.707-.195-.195-.512-.195-.707,0-.636,.636-1.17,.951-1.683,.99-.598,.044-1.22-.279-1.931-.99-.195-.195-.512-.195-.707,0-.195,.195-.195,.512,0,.707,.694,.694,1.364,1.104,2.032,1.238v6.247c-.799-.021-1.497-.098-2.115-.232-.087-.692-.535-1.292-1.191-1.569-1.756-.742-3.849-2.446-3.849-6.351,0-6.655,4.784-7.649,7.636-7.649s7.614,.994,7.614,7.649c0,3.9-2.084,5.604-3.832,6.346Z"/>
</svg>
